<svg width="50" height="27" viewBox="0 0 50 27" fill="none" xmlns="http://www.w3.org/2000/svg">
<path d="M46.6876 3.4463L35.2607 9.00172C34.6786 9.23458 34.2461 9.78347 34.2461 10.3823V16.5697C34.2461 17.1685 34.6619 17.7008 35.2441 17.9503L46.6377 23.5057C47.7355 23.9548 48.9996 23.1897 48.9996 22.1252V4.82684C48.9996 3.79559 47.7854 2.9972 46.6709 3.4463H46.6876Z" stroke="white" stroke-linecap="round" stroke-linejoin="round"/>
<path d="M30.9394 1H4.3266C2.48937 1 1 2.48937 1 4.3266V22.6229C1 24.4601 2.48937 25.9495 4.3266 25.9495H30.9394C32.7766 25.9495 34.266 24.4601 34.266 22.6229V4.3266C34.266 2.48937 32.7766 1 30.9394 1Z" stroke="white" stroke-linecap="round" stroke-linejoin="round"/>
</svg>
